<svg id="visual" viewBox="0 0 900 250" width="900" height="250" xmlns="http://www.w3.org/2000/svg" xmlns:xlink="http://www.w3.org/1999/xlink" version="1.1"><rect x="0" y="0" width="900" height="250" fill="#37323e"></rect><path d="M0 189L25 188.8C50 188.7 100 188.3 150 191.7C200 195 250 202 300 203C350 204 400 199 450 199C500 199 550 204 600 205.8C650 207.7 700 206.3 750 206.7C800 207 850 209 875 210L900 211L900 251L875 251C850 251 800 251 750 251C700 251 650 251 600 251C550 251 500 251 450 251C400 251 350 251 300 251C250 251 200 251 150 251C100 251 50 251 25 251L0 251Z" fill="#ffffff"></path><path d="M0 202L25 202.8C50 203.7 100 205.3 150 207.7C200 210 250 213 300 212.8C350 212.7 400 209.3 450 209.2C500 209 550 212 600 213.2C650 214.3 700 213.7 750 211.2C800 208.7 850 204.3 875 202.2L900 200L900 251L875 251C850 251 800 251 750 251C700 251 650 251 600 251C550 251 500 251 450 251C400 251 350 251 300 251C250 251 200 251 150 251C100 251 50 251 25 251L0 251Z" fill="#ffffff"></path><path d="M0 217L25 218.7C50 220.3 100 223.7 150 223.8C200 224 250 221 300 219.8C350 218.7 400 219.3 450 218.7C500 218 550 216 600 214.7C650 213.3 700 212.7 750 211.8C800 211 850 210 875 209.5L900 209L900 251L875 251C850 251 800 251 750 251C700 251 650 251 600 251C550 251 500 251 450 251C400 251 350 251 300 251C250 251 200 251 150 251C100 251 50 251 25 251L0 251Z" fill="#ffffff"></path><path d="M0 225L25 224.2C50 223.3 100 221.7 150 221.8C200 222 250 224 300 224.2C350 224.3 400 222.7 450 221.7C500 220.7 550 220.3 600 220.7C650 221 700 222 750 222C800 222 850 221 875 220.5L900 220L900 251L875 251C850 251 800 251 750 251C700 251 650 251 600 251C550 251 500 251 450 251C400 251 350 251 300 251C250 251 200 251 150 251C100 251 50 251 25 251L0 251Z" fill="#f6f6f6"></path><path d="M0 231L25 232C50 233 100 235 150 235.2C200 235.3 250 233.7 300 233.5C350 233.3 400 234.7 450 236.3C500 238 550 240 600 239C650 238 700 234 750 233.2C800 232.3 850 234.7 875 235.8L900 237L900 251L875 251C850 251 800 251 750 251C700 251 650 251 600 251C550 251 500 251 450 251C400 251 350 251 300 251C250 251 200 251 150 251C100 251 50 251 25 251L0 251Z" fill="#eeeeee"></path></svg>