<svg id="visual" viewBox="0 0 900 250" width="900" height="250" xmlns="http://www.w3.org/2000/svg" xmlns:xlink="http://www.w3.org/1999/xlink" version="1.1"><path d="M0 39L13.7 38.2C27.3 37.3 54.7 35.7 82 35.2C109.3 34.7 136.7 35.3 163.8 36.5C191 37.7 218 39.3 245.2 38.5C272.3 37.7 299.7 34.3 327 33.2C354.3 32 381.7 33 409 32.2C436.3 31.3 463.7 28.7 491 27.3C518.3 26 545.7 26 573 24.3C600.3 22.7 627.7 19.3 654.8 22.3C682 25.3 709 34.7 736.2 35.5C763.3 36.3 790.7 28.7 818 25.3C845.3 22 872.7 23 886.3 23.5L900 24L900 0L886.3 0C872.7 0 845.3 0 818 0C790.7 0 763.3 0 736.2 0C709 0 682 0 654.8 0C627.7 0 600.3 0 573 0C545.7 0 518.3 0 491 0C463.7 0 436.3 0 409 0C381.7 0 354.3 0 327 0C299.7 0 272.3 0 245.2 0C218 0 191 0 163.8 0C136.7 0 109.3 0 82 0C54.7 0 27.3 0 13.7 0L0 0Z" fill="#14213d"></path><path d="M0 79L13.7 79.3C27.3 79.7 54.7 80.3 82 77.3C109.3 74.3 136.7 67.7 163.8 64C191 60.3 218 59.7 245.2 61.3C272.3 63 299.7 67 327 67.8C354.3 68.7 381.7 66.3 409 66.8C436.3 67.3 463.7 70.7 491 70.7C518.3 70.7 545.7 67.3 573 66.5C600.3 65.7 627.7 67.3 654.8 69C682 70.7 709 72.3 736.2 70.7C763.3 69 790.7 64 818 58.5C845.3 53 872.7 47 886.3 44L900 41L900 22L886.3 21.5C872.7 21 845.3 20 818 23.3C790.7 26.7 763.3 34.3 736.2 33.5C709 32.7 682 23.3 654.8 20.3C627.7 17.3 600.3 20.7 573 22.3C545.7 24 518.3 24 491 25.3C463.7 26.7 436.3 29.3 409 30.2C381.7 31 354.3 30 327 31.2C299.7 32.3 272.3 35.7 245.2 36.5C218 37.3 191 35.7 163.8 34.5C136.7 33.3 109.3 32.7 82 33.2C54.7 33.7 27.3 35.3 13.7 36.2L0 37Z" fill="#0c1b35"></path><path d="M0 124L13.7 127.7C27.3 131.3 54.7 138.7 82 145.3C109.3 152 136.7 158 163.8 162.7C191 167.3 218 170.7 245.2 164.8C272.3 159 299.7 144 327 134.3C354.3 124.7 381.7 120.3 409 117.3C436.3 114.3 463.7 112.7 491 111C518.3 109.3 545.7 107.7 573 114C600.3 120.3 627.7 134.7 654.8 138.5C682 142.3 709 135.7 736.2 136.8C763.3 138 790.7 147 818 147.3C845.3 147.7 872.7 139.3 886.3 135.2L900 131L900 39L886.3 42C872.7 45 845.3 51 818 56.5C790.7 62 763.3 67 736.2 68.7C709 70.3 682 68.7 654.8 67C627.7 65.3 600.3 63.7 573 64.5C545.7 65.3 518.3 68.7 491 68.7C463.7 68.7 436.3 65.3 409 64.8C381.7 64.3 354.3 66.7 327 65.8C299.7 65 272.3 61 245.2 59.3C218 57.7 191 58.3 163.8 62C136.7 65.7 109.3 72.3 82 75.3C54.7 78.3 27.3 77.7 13.7 77.3L0 77Z" fill="#04142e"></path><path d="M0 171L13.7 174.8C27.3 178.7 54.7 186.3 82 190.5C109.3 194.7 136.7 195.3 163.8 198.2C191 201 218 206 245.2 204.8C272.3 203.7 299.7 196.3 327 185.2C354.3 174 381.7 159 409 153.2C436.3 147.3 463.7 150.7 491 154.3C518.3 158 545.7 162 573 170.3C600.3 178.7 627.7 191.3 654.8 192.7C682 194 709 184 736.2 185.7C763.3 187.3 790.7 200.7 818 204C845.3 207.3 872.7 200.7 886.3 197.3L900 194L900 129L886.3 133.2C872.7 137.3 845.3 145.7 818 145.3C790.7 145 763.3 136 736.2 134.8C709 133.7 682 140.3 654.8 136.5C627.7 132.7 600.3 118.3 573 112C545.7 105.7 518.3 107.3 491 109C463.7 110.7 436.3 112.3 409 115.3C381.7 118.3 354.3 122.7 327 132.3C299.7 142 272.3 157 245.2 162.8C218 168.7 191 165.3 163.8 160.7C136.7 156 109.3 150 82 143.3C54.7 136.7 27.3 129.3 13.7 125.7L0 122Z" fill="#000b27"></path><path d="M0 251L13.7 251C27.3 251 54.7 251 82 251C109.3 251 136.7 251 163.8 251C191 251 218 251 245.2 251C272.3 251 299.7 251 327 251C354.3 251 381.7 251 409 251C436.3 251 463.7 251 491 251C518.3 251 545.7 251 573 251C600.3 251 627.7 251 654.8 251C682 251 709 251 736.2 251C763.3 251 790.7 251 818 251C845.3 251 872.7 251 886.3 251L900 251L900 192L886.3 195.3C872.7 198.7 845.3 205.3 818 202C790.7 198.7 763.3 185.3 736.2 183.7C709 182 682 192 654.8 190.7C627.7 189.3 600.3 176.7 573 168.3C545.7 160 518.3 156 491 152.3C463.7 148.7 436.3 145.3 409 151.2C381.7 157 354.3 172 327 183.2C299.7 194.3 272.3 201.7 245.2 202.8C218 204 191 199 163.8 196.2C136.7 193.3 109.3 192.7 82 188.5C54.7 184.3 27.3 176.7 13.7 172.8L0 169Z" fill="#000000"></path></svg>