<svg id="visual" viewBox="0 0 900 250" width="900" height="250" xmlns="http://www.w3.org/2000/svg" xmlns:xlink="http://www.w3.org/1999/xlink" version="1.1"><rect x="0" y="0" width="900" height="250" fill="#14213d"></rect><path d="M0 205L25 203.7C50 202.3 100 199.7 150 196.8C200 194 250 191 300 192.8C350 194.7 400 201.3 450 203.7C500 206 550 204 600 202.3C650 200.7 700 199.3 750 197.3C800 195.3 850 192.7 875 191.3L900 190L900 251L875 251C850 251 800 251 750 251C700 251 650 251 600 251C550 251 500 251 450 251C400 251 350 251 300 251C250 251 200 251 150 251C100 251 50 251 25 251L0 251Z" fill="#eeeeee"></path><path d="M0 198L25 198C50 198 100 198 150 198.3C200 198.7 250 199.3 300 201.2C350 203 400 206 450 207.8C500 209.7 550 210.3 600 211C650 211.7 700 212.3 750 213C800 213.7 850 214.3 875 214.7L900 215L900 251L875 251C850 251 800 251 750 251C700 251 650 251 600 251C550 251 500 251 450 251C400 251 350 251 300 251C250 251 200 251 150 251C100 251 50 251 25 251L0 251Z" fill="#e9e9e9"></path><path d="M0 214L25 213.5C50 213 100 212 150 212.2C200 212.3 250 213.7 300 215.7C350 217.7 400 220.3 450 220.2C500 220 550 217 600 215.2C650 213.3 700 212.7 750 213.2C800 213.7 850 215.3 875 216.2L900 217L900 251L875 251C850 251 800 251 750 251C700 251 650 251 600 251C550 251 500 251 450 251C400 251 350 251 300 251C250 251 200 251 150 251C100 251 50 251 25 251L0 251Z" fill="#e5e5e5"></path><path d="M0 227L25 226.7C50 226.3 100 225.7 150 224.8C200 224 250 223 300 224.2C350 225.3 400 228.7 450 230.7C500 232.7 550 233.3 600 233.2C650 233 700 232 750 231.5C800 231 850 231 875 231L900 231L900 251L875 251C850 251 800 251 750 251C700 251 650 251 600 251C550 251 500 251 450 251C400 251 350 251 300 251C250 251 200 251 150 251C100 251 50 251 25 251L0 251Z" fill="#dddddd"></path><path d="M0 241L25 239.5C50 238 100 235 150 235C200 235 250 238 300 238.5C350 239 400 237 450 236.7C500 236.3 550 237.7 600 237C650 236.3 700 233.7 750 232.3C800 231 850 231 875 231L900 231L900 251L875 251C850 251 800 251 750 251C700 251 650 251 600 251C550 251 500 251 450 251C400 251 350 251 300 251C250 251 200 251 150 251C100 251 50 251 25 251L0 251Z" fill="#d6d6d6"></path></svg>