<svg id="visual" viewBox="0 0 900 250" width="900" height="250" xmlns="http://www.w3.org/2000/svg" xmlns:xlink="http://www.w3.org/1999/xlink" version="1.1"><path d="M0 39L13.7 41C27.3 43 54.7 47 82 44C109.3 41 136.7 31 163.8 30.7C191 30.3 218 39.7 245.2 42.2C272.3 44.7 299.7 40.3 327 38.2C354.3 36 381.7 36 409 36.8C436.3 37.7 463.7 39.3 491 42.3C518.3 45.3 545.7 49.7 573 49.7C600.3 49.7 627.7 45.3 654.8 39.8C682 34.3 709 27.7 736.2 28.5C763.3 29.3 790.7 37.7 818 41C845.3 44.3 872.7 42.7 886.3 41.8L900 41L900 0L886.3 0C872.7 0 845.3 0 818 0C790.7 0 763.3 0 736.2 0C709 0 682 0 654.8 0C627.7 0 600.3 0 573 0C545.7 0 518.3 0 491 0C463.7 0 436.3 0 409 0C381.7 0 354.3 0 327 0C299.7 0 272.3 0 245.2 0C218 0 191 0 163.8 0C136.7 0 109.3 0 82 0C54.7 0 27.3 0 13.7 0L0 0Z" fill="#37323e"></path><path d="M0 94L13.7 91.5C27.3 89 54.7 84 82 82.7C109.3 81.3 136.7 83.7 163.8 88.7C191 93.7 218 101.3 245.2 97.7C272.3 94 299.7 79 327 71C354.3 63 381.7 62 409 68.2C436.3 74.3 463.7 87.7 491 92.3C518.3 97 545.7 93 573 87.7C600.3 82.3 627.7 75.7 654.8 69.8C682 64 709 59 736.2 61.5C763.3 64 790.7 74 818 80.7C845.3 87.3 872.7 90.7 886.3 92.3L900 94L900 39L886.3 39.8C872.7 40.7 845.3 42.3 818 39C790.7 35.7 763.3 27.3 736.2 26.5C709 25.7 682 32.3 654.8 37.8C627.7 43.3 600.3 47.7 573 47.7C545.7 47.7 518.3 43.3 491 40.3C463.7 37.3 436.3 35.7 409 34.8C381.7 34 354.3 34 327 36.2C299.7 38.3 272.3 42.7 245.2 40.2C218 37.7 191 28.3 163.8 28.7C136.7 29 109.3 39 82 42C54.7 45 27.3 41 13.7 39L0 37Z" fill="#312d3d"></path><path d="M0 151L13.7 149.8C27.3 148.7 54.7 146.3 82 148.5C109.3 150.7 136.7 157.3 163.8 159.8C191 162.3 218 160.7 245.2 151.8C272.3 143 299.7 127 327 127.8C354.3 128.7 381.7 146.3 409 151C436.3 155.7 463.7 147.3 491 143.2C518.3 139 545.7 139 573 142.3C600.3 145.7 627.7 152.3 654.8 154.8C682 157.3 709 155.7 736.2 159.3C763.3 163 790.7 172 818 172.3C845.3 172.7 872.7 164.3 886.3 160.2L900 156L900 92L886.3 90.3C872.7 88.7 845.3 85.3 818 78.7C790.7 72 763.3 62 736.2 59.5C709 57 682 62 654.8 67.8C627.7 73.7 600.3 80.3 573 85.7C545.7 91 518.3 95 491 90.3C463.7 85.7 436.3 72.3 409 66.2C381.7 60 354.3 61 327 69C299.7 77 272.3 92 245.2 95.7C218 99.3 191 91.7 163.8 86.7C136.7 81.7 109.3 79.3 82 80.7C54.7 82 27.3 87 13.7 89.5L0 92Z" fill="#2a293d"></path><path d="M0 231L13.7 231.5C27.3 232 54.7 233 82 230.5C109.3 228 136.7 222 163.8 221.5C191 221 218 226 245.2 225.7C272.3 225.3 299.7 219.7 327 218.8C354.3 218 381.7 222 409 221.2C436.3 220.3 463.7 214.7 491 215.2C518.3 215.7 545.7 222.3 573 226.5C600.3 230.7 627.7 232.3 654.8 229.3C682 226.3 709 218.7 736.2 217.3C763.3 216 790.7 221 818 223.5C845.3 226 872.7 226 886.3 226L900 226L900 154L886.3 158.2C872.7 162.3 845.3 170.7 818 170.3C790.7 170 763.3 161 736.2 157.3C709 153.7 682 155.3 654.8 152.8C627.7 150.3 600.3 143.7 573 140.3C545.7 137 518.3 137 491 141.2C463.7 145.3 436.3 153.7 409 149C381.7 144.3 354.3 126.7 327 125.8C299.7 125 272.3 141 245.2 149.8C218 158.7 191 160.3 163.8 157.8C136.7 155.3 109.3 148.7 82 146.5C54.7 144.3 27.3 146.7 13.7 147.8L0 149Z" fill="#21253d"></path><path d="M0 251L13.7 251C27.3 251 54.7 251 82 251C109.3 251 136.7 251 163.8 251C191 251 218 251 245.2 251C272.3 251 299.7 251 327 251C354.3 251 381.7 251 409 251C436.3 251 463.7 251 491 251C518.3 251 545.7 251 573 251C600.3 251 627.7 251 654.8 251C682 251 709 251 736.2 251C763.3 251 790.7 251 818 251C845.3 251 872.7 251 886.3 251L900 251L900 224L886.3 224C872.7 224 845.3 224 818 221.5C790.7 219 763.3 214 736.2 215.3C709 216.7 682 224.3 654.8 227.3C627.7 230.3 600.3 228.7 573 224.5C545.7 220.3 518.3 213.7 491 213.2C463.7 212.7 436.3 218.3 409 219.2C381.7 220 354.3 216 327 216.8C299.7 217.7 272.3 223.3 245.2 223.7C218 224 191 219 163.8 219.5C136.7 220 109.3 226 82 228.5C54.7 231 27.3 230 13.7 229.5L0 229Z" fill="#14213d"></path></svg>