<svg id="visual" viewBox="0 0 900 250" width="900" height="250" xmlns="http://www.w3.org/2000/svg" xmlns:xlink="http://www.w3.org/1999/xlink" version="1.1"><rect x="0" y="0" width="900" height="250" fill="#fff"></rect><path d="M0 161L21.5 165.7C43 170.3 86 179.7 128.8 186.3C171.7 193 214.3 197 257.2 198.7C300 200.3 343 199.7 385.8 195.2C428.7 190.7 471.3 182.3 514.2 177.2C557 172 600 170 642.8 171.8C685.7 173.7 728.3 179.3 771.2 180C814 180.7 857 176.3 878.5 174.2L900 172L900 251L878.5 251C857 251 814 251 771.2 251C728.3 251 685.7 251 642.8 251C600 251 557 251 514.2 251C471.3 251 428.7 251 385.8 251C343 251 300 251 257.2 251C214.3 251 171.7 251 128.8 251C86 251 43 251 21.5 251L0 251Z" fill="#e5e5e5" stroke-linecap="round" stroke-linejoin="miter"></path></svg>