<svg id="visual" viewBox="0 0 540 960" width="540" height="960" xmlns="http://www.w3.org/2000/svg" xmlns:xlink="http://www.w3.org/1999/xlink" version="1.1"><g stroke-width="1" stroke-linejoin="bevel"><path d="M274 483L282 530.3L337 508Z" fill="#1a223d" stroke="#1a223d"></path><path d="M337 508L354 478L274 483Z" fill="#2d2b3d" stroke="#2d2b3d"></path><path d="M355 498.6L354 478L337 508Z" fill="#14213d" stroke="#14213d"></path><path d="M382 518.6L378 514.6L374 542.3Z" fill="#27273d" stroke="#27273d"></path><path d="M337 508L378 514.6L355 498.6Z" fill="#23263d" stroke="#23263d"></path><path d="M355 498.6L378 514.6L354 478Z" fill="#1f243d" stroke="#1f243d"></path><path d="M226 538.6L238 547.6L282 530.3Z" fill="#2d2b3d" stroke="#2d2b3d"></path><path d="M282 530.3L302 582.9L337 508Z" fill="#2a293d" stroke="#2a293d"></path><path d="M252 585.9L302 582.9L282 530.3Z" fill="#27273d" stroke="#27273d"></path><path d="M374 542.3L378 514.6L337 508Z" fill="#302c3d" stroke="#302c3d"></path><path d="M400 440.4L365 431.4L354 478Z" fill="#14213d" stroke="#14213d"></path><path d="M302 582.9L374 542.3L337 508Z" fill="#37323e" stroke="#37323e"></path><path d="M274 483L226 538.6L282 530.3Z" fill="#302c3d" stroke="#302c3d"></path><path d="M354 414.4L254 431.7L274 483Z" fill="#1a223d" stroke="#1a223d"></path><path d="M274 483L223 468L226 538.6Z" fill="#302c3d" stroke="#302c3d"></path><path d="M398 604.9L380 541.3L374 542.3Z" fill="#35303e" stroke="#35303e"></path><path d="M374 542.3L380 541.3L382 518.6Z" fill="#14213d" stroke="#14213d"></path><path d="M254 431.7L223 468L274 483Z" fill="#302c3d" stroke="#302c3d"></path><path d="M302 379.1L253 425.4L254 431.7Z" fill="#27273d" stroke="#27273d"></path><path d="M254 431.7L216 439.4L223 468Z" fill="#2d2b3d" stroke="#2d2b3d"></path><path d="M414 499L354 478L378 514.6Z" fill="#37323e" stroke="#37323e"></path><path d="M354 478L354 414.4L274 483Z" fill="#37323e" stroke="#37323e"></path><path d="M230 592.9L252 585.9L238 547.6Z" fill="#27273d" stroke="#27273d"></path><path d="M238 547.6L252 585.9L282 530.3Z" fill="#27273d" stroke="#27273d"></path><path d="M299 622.5L316 602.3L302 582.9Z" fill="#322e3d" stroke="#322e3d"></path><path d="M302 582.9L316 602.3L374 542.3Z" fill="#2a293d" stroke="#2a293d"></path><path d="M365 431.4L354 414.4L354 478Z" fill="#302c3d" stroke="#302c3d"></path><path d="M253 425.4L216 439.4L254 431.7Z" fill="#2a293d" stroke="#2a293d"></path><path d="M182 479L203 549.3L226 538.6Z" fill="#27273d" stroke="#27273d"></path><path d="M182 479L226 538.6L223 468Z" fill="#27273d" stroke="#27273d"></path><path d="M226 538.6L203 549.3L238 547.6Z" fill="#23263d" stroke="#23263d"></path><path d="M380 541.3L414 499L382 518.6Z" fill="#37323e" stroke="#37323e"></path><path d="M382 518.6L414 499L378 514.6Z" fill="#2a293d" stroke="#2a293d"></path><path d="M365 431.4L398 377.1L354 414.4Z" fill="#27273d" stroke="#27273d"></path><path d="M414 499L400 440.4L354 478Z" fill="#2d2b3d" stroke="#2d2b3d"></path><path d="M203 549.3L230 592.9L238 547.6Z" fill="#37323e" stroke="#37323e"></path><path d="M252 585.9L299 622.5L302 582.9Z" fill="#322e3d" stroke="#322e3d"></path><path d="M248 378.7L240 403.4L253 425.4Z" fill="#14213d" stroke="#14213d"></path><path d="M253 425.4L240 403.4L216 439.4Z" fill="#1a223d" stroke="#1a223d"></path><path d="M231 667.5L299 622.5L252 585.9Z" fill="#37323e" stroke="#37323e"></path><path d="M316 602.3L398 604.9L374 542.3Z" fill="#23263d" stroke="#23263d"></path><path d="M100 447.4L182 479L216 439.4Z" fill="#35303e" stroke="#35303e"></path><path d="M216 439.4L182 479L223 468Z" fill="#14213d" stroke="#14213d"></path><path d="M309 365.7L302 379.1L354 414.4Z" fill="#37323e" stroke="#37323e"></path><path d="M354 414.4L302 379.1L254 431.7Z" fill="#1f243d" stroke="#1f243d"></path><path d="M414 499L414 427.4L400 440.4Z" fill="#2a293d" stroke="#2a293d"></path><path d="M400 440.4L414 427.4L365 431.4Z" fill="#302c3d" stroke="#302c3d"></path><path d="M302 379.1L248 378.7L253 425.4Z" fill="#2d2b3d" stroke="#2d2b3d"></path><path d="M240 403.4L203 352.7L216 439.4Z" fill="#1f243d" stroke="#1f243d"></path><path d="M362 354.1L309 365.7L354 414.4Z" fill="#37323e" stroke="#37323e"></path><path d="M302 379.1L287 348.1L248 378.7Z" fill="#322e3d" stroke="#322e3d"></path><path d="M340 683.2L332 637.9L301 703.8Z" fill="#35303e" stroke="#35303e"></path><path d="M299 622.5L332 637.9L316 602.3Z" fill="#1a223d" stroke="#1a223d"></path><path d="M380 541.3L446 557.6L414 499Z" fill="#1f243d" stroke="#1f243d"></path><path d="M332 637.9L398 604.9L316 602.3Z" fill="#14213d" stroke="#14213d"></path><path d="M398 377.1L377 368.7L354 414.4Z" fill="#2a293d" stroke="#2a293d"></path><path d="M398 604.9L446 557.6L380 541.3Z" fill="#2d2b3d" stroke="#2d2b3d"></path><path d="M485 463L438 403.7L414 427.4Z" fill="#2d2b3d" stroke="#2d2b3d"></path><path d="M351 324.5L287 348.1L309 365.7Z" fill="#14213d" stroke="#14213d"></path><path d="M309 365.7L287 348.1L302 379.1Z" fill="#23263d" stroke="#23263d"></path><path d="M146 517L150 538.3L203 549.3Z" fill="#1a223d" stroke="#1a223d"></path><path d="M203 549.3L158 598.9L230 592.9Z" fill="#37323e" stroke="#37323e"></path><path d="M182 479L146 517L203 549.3Z" fill="#27273d" stroke="#27273d"></path><path d="M139 513.6L146 517L182 479Z" fill="#37323e" stroke="#37323e"></path><path d="M414 427.4L398 377.1L365 431.4Z" fill="#14213d" stroke="#14213d"></path><path d="M415 334.5L362 354.1L377 368.7Z" fill="#322e3d" stroke="#322e3d"></path><path d="M377 368.7L362 354.1L354 414.4Z" fill="#2a293d" stroke="#2a293d"></path><path d="M112 521L139 513.6L100 447.4Z" fill="#37323e" stroke="#37323e"></path><path d="M146 517L139 513.6L150 538.3Z" fill="#27273d" stroke="#27273d"></path><path d="M485 463L414 427.4L414 499Z" fill="#2d2b3d" stroke="#2d2b3d"></path><path d="M414 427.4L438 403.7L398 377.1Z" fill="#2a293d" stroke="#2a293d"></path><path d="M446 557.6L473 504.6L414 499Z" fill="#27273d" stroke="#27273d"></path><path d="M126 561.3L158 598.9L150 538.3Z" fill="#35303e" stroke="#35303e"></path><path d="M150 538.3L158 598.9L203 549.3Z" fill="#1f243d" stroke="#1f243d"></path><path d="M230 592.9L231 667.5L252 585.9Z" fill="#23263d" stroke="#23263d"></path><path d="M178 627.9L211 652.5L230 592.9Z" fill="#322e3d" stroke="#322e3d"></path><path d="M158 598.9L178 627.9L230 592.9Z" fill="#2a293d" stroke="#2a293d"></path><path d="M398 604.9L468 567.3L446 557.6Z" fill="#1a223d" stroke="#1a223d"></path><path d="M446 557.6L470 565.3L473 504.6Z" fill="#1f243d" stroke="#1f243d"></path><path d="M468 567.3L470 565.3L446 557.6Z" fill="#35303e" stroke="#35303e"></path><path d="M230 335.5L203 352.7L248 378.7Z" fill="#302c3d" stroke="#302c3d"></path><path d="M248 378.7L203 352.7L240 403.4Z" fill="#2d2b3d" stroke="#2d2b3d"></path><path d="M218 674.5L231 667.5L211 652.5Z" fill="#2a293d" stroke="#2a293d"></path><path d="M211 652.5L231 667.5L230 592.9Z" fill="#302c3d" stroke="#302c3d"></path><path d="M253 324.5L248 378.7L287 348.1Z" fill="#1a223d" stroke="#1a223d"></path><path d="M253 324.5L230 335.5L248 378.7Z" fill="#14213d" stroke="#14213d"></path><path d="M415 334.5L351 324.5L362 354.1Z" fill="#1a223d" stroke="#1a223d"></path><path d="M362 354.1L351 324.5L309 365.7Z" fill="#23263d" stroke="#23263d"></path><path d="M415 334.5L377 368.7L398 377.1Z" fill="#35303e" stroke="#35303e"></path><path d="M301 703.8L332 637.9L299 622.5Z" fill="#14213d" stroke="#14213d"></path><path d="M332 637.9L391 668.2L398 604.9Z" fill="#2d2b3d" stroke="#2d2b3d"></path><path d="M398 604.9L486 623.9L468 567.3Z" fill="#322e3d" stroke="#322e3d"></path><path d="M303 283.8L253 324.5L287 348.1Z" fill="#37323e" stroke="#37323e"></path><path d="M112 521L126 561.3L150 538.3Z" fill="#14213d" stroke="#14213d"></path><path d="M158 598.9L149 637.5L178 627.9Z" fill="#35303e" stroke="#35303e"></path><path d="M507 446L485 463L540 483Z" fill="#37323e" stroke="#37323e"></path><path d="M473 504.6L485 463L414 499Z" fill="#1a223d" stroke="#1a223d"></path><path d="M149 637.5L197 657.2L178 627.9Z" fill="#23263d" stroke="#23263d"></path><path d="M178 627.9L197 657.2L211 652.5Z" fill="#35303e" stroke="#35303e"></path><path d="M340 683.2L391 668.2L332 637.9Z" fill="#2a293d" stroke="#2a293d"></path><path d="M468 567.3L520 604.9L470 565.3Z" fill="#35303e" stroke="#35303e"></path><path d="M100 447.4L139 513.6L182 479Z" fill="#2d2b3d" stroke="#2d2b3d"></path><path d="M139 513.6L112 521L150 538.3Z" fill="#27273d" stroke="#27273d"></path><path d="M197 657.2L218 674.5L211 652.5Z" fill="#35303e" stroke="#35303e"></path><path d="M231 667.5L301 703.8L299 622.5Z" fill="#27273d" stroke="#27273d"></path><path d="M64 555.3L132 591.3L126 561.3Z" fill="#27273d" stroke="#27273d"></path><path d="M126 561.3L132 591.3L158 598.9Z" fill="#2d2b3d" stroke="#2d2b3d"></path><path d="M479 385.1L459 379.7L438 403.7Z" fill="#322e3d" stroke="#322e3d"></path><path d="M438 403.7L459 379.7L398 377.1Z" fill="#14213d" stroke="#14213d"></path><path d="M340 683.2L389 681.5L391 668.2Z" fill="#2a293d" stroke="#2a293d"></path><path d="M447 670.5L486 623.9L398 604.9Z" fill="#2a293d" stroke="#2a293d"></path><path d="M258 750.5L301 703.8L231 667.5Z" fill="#322e3d" stroke="#322e3d"></path><path d="M434 726.2L415 691.5L389 681.5Z" fill="#35303e" stroke="#35303e"></path><path d="M459 379.7L415 334.5L398 377.1Z" fill="#322e3d" stroke="#322e3d"></path><path d="M132 591.3L149 637.5L158 598.9Z" fill="#23263d" stroke="#23263d"></path><path d="M197 657.2L189 707.2L218 674.5Z" fill="#302c3d" stroke="#302c3d"></path><path d="M230 335.5L183 336.1L203 352.7Z" fill="#322e3d" stroke="#322e3d"></path><path d="M153 338.1L100 447.4L216 439.4Z" fill="#302c3d" stroke="#302c3d"></path><path d="M206 285.5L183 336.1L230 335.5Z" fill="#35303e" stroke="#35303e"></path><path d="M485 463L495 428.7L438 403.7Z" fill="#23263d" stroke="#23263d"></path><path d="M507 446L495 428.7L485 463Z" fill="#1a223d" stroke="#1a223d"></path><path d="M64 547.6L98 540.6L112 521Z" fill="#2a293d" stroke="#2a293d"></path><path d="M112 521L98 540.6L126 561.3Z" fill="#322e3d" stroke="#322e3d"></path><path d="M132 591.3L59 639.9L149 637.5Z" fill="#322e3d" stroke="#322e3d"></path><path d="M153 338.1L216 439.4L203 352.7Z" fill="#35303e" stroke="#35303e"></path><path d="M495 428.7L479 385.1L438 403.7Z" fill="#2d2b3d" stroke="#2d2b3d"></path><path d="M459 379.7L478 343.1L415 334.5Z" fill="#1f243d" stroke="#1f243d"></path><path d="M540 487.6L485 463L473 504.6Z" fill="#1f243d" stroke="#1f243d"></path><path d="M495 428.7L540 430.7L479 385.1Z" fill="#35303e" stroke="#35303e"></path><path d="M415 334.5L361 293.5L351 324.5Z" fill="#2a293d" stroke="#2a293d"></path><path d="M351 324.5L303 283.8L287 348.1Z" fill="#322e3d" stroke="#322e3d"></path><path d="M253 324.5L206 285.5L230 335.5Z" fill="#2d2b3d" stroke="#2d2b3d"></path><path d="M340 283.8L303 283.8L351 324.5Z" fill="#14213d" stroke="#14213d"></path><path d="M447 670.5L398 604.9L391 668.2Z" fill="#302c3d" stroke="#302c3d"></path><path d="M540 532.3L540 487.6L473 504.6Z" fill="#14213d" stroke="#14213d"></path><path d="M321 749.8L389 681.5L340 683.2Z" fill="#23263d" stroke="#23263d"></path><path d="M389 681.5L415 691.5L391 668.2Z" fill="#2a293d" stroke="#2a293d"></path><path d="M415 691.5L447 670.5L391 668.2Z" fill="#322e3d" stroke="#322e3d"></path><path d="M361 293.5L340 283.8L351 324.5Z" fill="#1f243d" stroke="#1f243d"></path><path d="M140 270.8L153 338.1L183 336.1Z" fill="#1f243d" stroke="#1f243d"></path><path d="M183 336.1L153 338.1L203 352.7Z" fill="#302c3d" stroke="#302c3d"></path><path d="M258 750.5L305 726.2L301 703.8Z" fill="#35303e" stroke="#35303e"></path><path d="M301 703.8L305 726.2L340 683.2Z" fill="#37323e" stroke="#37323e"></path><path d="M258 750.5L231 667.5L218 674.5Z" fill="#37323e" stroke="#37323e"></path><path d="M84 420.4L84 423.7L100 447.4Z" fill="#35303e" stroke="#35303e"></path><path d="M56 464L64 547.6L112 521Z" fill="#23263d" stroke="#23263d"></path><path d="M104 353.7L84 420.4L100 447.4Z" fill="#37323e" stroke="#37323e"></path><path d="M151 716.8L189 707.2L197 657.2Z" fill="#37323e" stroke="#37323e"></path><path d="M451 723.8L461 675.2L447 670.5Z" fill="#27273d" stroke="#27273d"></path><path d="M447 670.5L461 675.2L486 623.9Z" fill="#14213d" stroke="#14213d"></path><path d="M479 385.1L478 343.1L459 379.7Z" fill="#2a293d" stroke="#2a293d"></path><path d="M415 334.5L426 298.8L361 293.5Z" fill="#2d2b3d" stroke="#2d2b3d"></path><path d="M361 293.5L362 210.2L340 283.8Z" fill="#27273d" stroke="#27273d"></path><path d="M489 333.5L478 343.1L479 385.1Z" fill="#2a293d" stroke="#2a293d"></path><path d="M254 255.8L206 285.5L253 324.5Z" fill="#35303e" stroke="#35303e"></path><path d="M540 532.3L473 504.6L470 565.3Z" fill="#27273d" stroke="#27273d"></path><path d="M507 446L533 437.4L495 428.7Z" fill="#27273d" stroke="#27273d"></path><path d="M478 343.1L426 298.8L415 334.5Z" fill="#1f243d" stroke="#1f243d"></path><path d="M540 487.6L540 483L485 463Z" fill="#23263d" stroke="#23263d"></path><path d="M520 604.9L468 567.3L486 623.9Z" fill="#2a293d" stroke="#2a293d"></path><path d="M540 571.9L540 532.3L470 565.3Z" fill="#2d2b3d" stroke="#2d2b3d"></path><path d="M540 465.4L533 437.4L507 446Z" fill="#302c3d" stroke="#302c3d"></path><path d="M340 283.8L291 262.8L303 283.8Z" fill="#1f243d" stroke="#1f243d"></path><path d="M303 283.8L291 262.8L253 324.5Z" fill="#322e3d" stroke="#322e3d"></path><path d="M262 236.2L291 262.8L269 210.5Z" fill="#1f243d" stroke="#1f243d"></path><path d="M540 483L540 465.4L507 446Z" fill="#322e3d" stroke="#322e3d"></path><path d="M516 613.5L520 604.9L486 623.9Z" fill="#302c3d" stroke="#302c3d"></path><path d="M540 642.5L516 613.5L532 663.2Z" fill="#2d2b3d" stroke="#2d2b3d"></path><path d="M56 464L112 521L100 447.4Z" fill="#27273d" stroke="#27273d"></path><path d="M98 540.6L64 555.3L126 561.3Z" fill="#2d2b3d" stroke="#2d2b3d"></path><path d="M154 727.2L188 729.8L189 707.2Z" fill="#2a293d" stroke="#2a293d"></path><path d="M56 464L100 447.4L84 423.7Z" fill="#35303e" stroke="#35303e"></path><path d="M64 547.6L64 555.3L98 540.6Z" fill="#23263d" stroke="#23263d"></path><path d="M540 642.5L540 571.9L520 604.9Z" fill="#302c3d" stroke="#302c3d"></path><path d="M520 604.9L540 571.9L470 565.3Z" fill="#1a223d" stroke="#1a223d"></path><path d="M540 465.4L540 430.7L533 437.4Z" fill="#37323e" stroke="#37323e"></path><path d="M533 437.4L540 430.7L495 428.7Z" fill="#35303e" stroke="#35303e"></path><path d="M303 772.5L321 749.8L305 726.2Z" fill="#2d2b3d" stroke="#2d2b3d"></path><path d="M305 726.2L321 749.8L340 683.2Z" fill="#37323e" stroke="#37323e"></path><path d="M415 691.5L451 723.8L447 670.5Z" fill="#37323e" stroke="#37323e"></path><path d="M153 338.1L104 353.7L100 447.4Z" fill="#322e3d" stroke="#322e3d"></path><path d="M111 337.1L104 353.7L153 338.1Z" fill="#1f243d" stroke="#1f243d"></path><path d="M67 391.7L84 423.7L84 420.4Z" fill="#23263d" stroke="#23263d"></path><path d="M67 391.7L56 464L84 423.7Z" fill="#27273d" stroke="#27273d"></path><path d="M64 547.6L0 552.3L64 555.3Z" fill="#1a223d" stroke="#1a223d"></path><path d="M104 353.7L76 396.4L84 420.4Z" fill="#1f243d" stroke="#1f243d"></path><path d="M291 262.8L254 255.8L253 324.5Z" fill="#322e3d" stroke="#322e3d"></path><path d="M478 343.1L489 333.5L426 298.8Z" fill="#37323e" stroke="#37323e"></path><path d="M540 316.1L489 333.5L479 385.1Z" fill="#302c3d" stroke="#302c3d"></path><path d="M189 707.2L258 750.5L218 674.5Z" fill="#35303e" stroke="#35303e"></path><path d="M112 323.5L153 338.1L140 270.8Z" fill="#14213d" stroke="#14213d"></path><path d="M112 323.5L111 337.1L153 338.1Z" fill="#2a293d" stroke="#2a293d"></path><path d="M74 350.1L67 391.7L76 396.4Z" fill="#23263d" stroke="#23263d"></path><path d="M151 716.8L197 657.2L149 637.5Z" fill="#322e3d" stroke="#322e3d"></path><path d="M189 707.2L188 729.8L258 750.5Z" fill="#37323e" stroke="#37323e"></path><path d="M385 791.5L434 726.2L389 681.5Z" fill="#302c3d" stroke="#302c3d"></path><path d="M532 663.2L516 613.5L486 623.9Z" fill="#1f243d" stroke="#1f243d"></path><path d="M74 350.1L76 396.4L104 353.7Z" fill="#37323e" stroke="#37323e"></path><path d="M76 396.4L67 391.7L84 420.4Z" fill="#2a293d" stroke="#2a293d"></path><path d="M93 317.5L112 323.5L121 274.8Z" fill="#302c3d" stroke="#302c3d"></path><path d="M111 337.1L74 350.1L104 353.7Z" fill="#322e3d" stroke="#322e3d"></path><path d="M101 712.2L151 716.8L149 637.5Z" fill="#2d2b3d" stroke="#2d2b3d"></path><path d="M441 751.8L451 723.8L434 726.2Z" fill="#35303e" stroke="#35303e"></path><path d="M434 726.2L451 723.8L415 691.5Z" fill="#37323e" stroke="#37323e"></path><path d="M291 262.8L262 236.2L254 255.8Z" fill="#37323e" stroke="#37323e"></path><path d="M254 255.8L198 223.2L206 285.5Z" fill="#1a223d" stroke="#1a223d"></path><path d="M269 210.5L291 262.8L271 208.2Z" fill="#1f243d" stroke="#1f243d"></path><path d="M131 734.8L154 727.2L151 716.8Z" fill="#322e3d" stroke="#322e3d"></path><path d="M151 716.8L154 727.2L189 707.2Z" fill="#302c3d" stroke="#302c3d"></path><path d="M240 799.1L285 774.5L258 750.5Z" fill="#2a293d" stroke="#2a293d"></path><path d="M285 774.5L303 772.5L305 726.2Z" fill="#27273d" stroke="#27273d"></path><path d="M321 749.8L385 791.5L389 681.5Z" fill="#302c3d" stroke="#302c3d"></path><path d="M285 774.5L305 726.2L258 750.5Z" fill="#322e3d" stroke="#322e3d"></path><path d="M240 799.1L258 750.5L199 799.5Z" fill="#27273d" stroke="#27273d"></path><path d="M93 317.5L74 350.1L111 337.1Z" fill="#302c3d" stroke="#302c3d"></path><path d="M0 429.4L28 483.6L56 464Z" fill="#23263d" stroke="#23263d"></path><path d="M56 464L28 483.6L64 547.6Z" fill="#37323e" stroke="#37323e"></path><path d="M0 513L28 483.6L0 429.4Z" fill="#27273d" stroke="#27273d"></path><path d="M532 663.2L486 623.9L461 675.2Z" fill="#37323e" stroke="#37323e"></path><path d="M516 613.5L540 642.5L520 604.9Z" fill="#27273d" stroke="#27273d"></path><path d="M0 609.9L52 619.9L64 555.3Z" fill="#322e3d" stroke="#322e3d"></path><path d="M64 555.3L52 619.9L132 591.3Z" fill="#322e3d" stroke="#322e3d"></path><path d="M265 837.1L327 778.8L303 772.5Z" fill="#1a223d" stroke="#1a223d"></path><path d="M303 772.5L327 778.8L321 749.8Z" fill="#27273d" stroke="#27273d"></path><path d="M140 270.8L183 336.1L206 285.5Z" fill="#37323e" stroke="#37323e"></path><path d="M112 323.5L93 317.5L111 337.1Z" fill="#35303e" stroke="#35303e"></path><path d="M52 619.9L59 639.9L132 591.3Z" fill="#14213d" stroke="#14213d"></path><path d="M540 726.2L532 663.2L461 675.2Z" fill="#1f243d" stroke="#1f243d"></path><path d="M454 252.8L427 251.2L426 298.8Z" fill="#1f243d" stroke="#1f243d"></path><path d="M426 298.8L427 251.2L361 293.5Z" fill="#23263d" stroke="#23263d"></path><path d="M198 223.2L140 270.8L206 285.5Z" fill="#1f243d" stroke="#1f243d"></path><path d="M385 791.5L441 751.8L434 726.2Z" fill="#2d2b3d" stroke="#2d2b3d"></path><path d="M451 723.8L487 748.8L461 675.2Z" fill="#2d2b3d" stroke="#2d2b3d"></path><path d="M101 712.2L131 734.8L151 716.8Z" fill="#2d2b3d" stroke="#2d2b3d"></path><path d="M154 727.2L144 770.5L188 729.8Z" fill="#302c3d" stroke="#302c3d"></path><path d="M64 689.2L101 712.2L149 637.5Z" fill="#302c3d" stroke="#302c3d"></path><path d="M112 245.8L121 274.8L140 270.8Z" fill="#2a293d" stroke="#2a293d"></path><path d="M140 270.8L121 274.8L112 323.5Z" fill="#1f243d" stroke="#1f243d"></path><path d="M522 308.5L454 252.8L489 333.5Z" fill="#2d2b3d" stroke="#2d2b3d"></path><path d="M489 333.5L454 252.8L426 298.8Z" fill="#37323e" stroke="#37323e"></path><path d="M271 208.2L291 262.8L287 193.2Z" fill="#14213d" stroke="#14213d"></path><path d="M540 316.1L522 308.5L489 333.5Z" fill="#322e3d" stroke="#322e3d"></path><path d="M291 262.8L340 283.8L362 210.2Z" fill="#27273d" stroke="#27273d"></path><path d="M262 236.2L198 223.2L254 255.8Z" fill="#1a223d" stroke="#1a223d"></path><path d="M362 210.2L361 293.5L427 251.2Z" fill="#2d2b3d" stroke="#2d2b3d"></path><path d="M269 210.5L198 223.2L262 236.2Z" fill="#14213d" stroke="#14213d"></path><path d="M411 188.2L362 210.2L427 251.2Z" fill="#27273d" stroke="#27273d"></path><path d="M219 166.5L198 223.2L269 210.5Z" fill="#302c3d" stroke="#302c3d"></path><path d="M374 796.5L321 749.8L327 778.8Z" fill="#37323e" stroke="#37323e"></path><path d="M374 796.5L385 791.5L321 749.8Z" fill="#27273d" stroke="#27273d"></path><path d="M540 430.7L540 316.1L479 385.1Z" fill="#23263d" stroke="#23263d"></path><path d="M522 308.5L468 244.8L454 252.8Z" fill="#14213d" stroke="#14213d"></path><path d="M93 317.5L65 316.1L74 350.1Z" fill="#37323e" stroke="#37323e"></path><path d="M0 386.1L0 429.4L67 391.7Z" fill="#37323e" stroke="#37323e"></path><path d="M88 246.2L65 316.1L93 317.5Z" fill="#1f243d" stroke="#1f243d"></path><path d="M369 836.7L374 796.5L327 778.8Z" fill="#2d2b3d" stroke="#2d2b3d"></path><path d="M0 429.4L56 464L67 391.7Z" fill="#1a223d" stroke="#1a223d"></path><path d="M28 483.6L0 513L64 547.6Z" fill="#27273d" stroke="#27273d"></path><path d="M62 695.5L64 689.2L16 656.5Z" fill="#1a223d" stroke="#1a223d"></path><path d="M64 689.2L59 639.9L16 656.5Z" fill="#27273d" stroke="#27273d"></path><path d="M59 639.9L64 689.2L149 637.5Z" fill="#1f243d" stroke="#1f243d"></path><path d="M123 770.5L144 770.5L131 734.8Z" fill="#2d2b3d" stroke="#2d2b3d"></path><path d="M199 799.5L258 750.5L188 729.8Z" fill="#1f243d" stroke="#1f243d"></path><path d="M285 774.5L265 837.1L303 772.5Z" fill="#2a293d" stroke="#2a293d"></path><path d="M540 316.1L540 312.5L522 308.5Z" fill="#322e3d" stroke="#322e3d"></path><path d="M0 513L0 530.6L64 547.6Z" fill="#2d2b3d" stroke="#2d2b3d"></path><path d="M512 215.5L468 244.8L540 229.8Z" fill="#14213d" stroke="#14213d"></path><path d="M454 252.8L460 224.2L427 251.2Z" fill="#14213d" stroke="#14213d"></path><path d="M0 530.6L0 552.3L64 547.6Z" fill="#1a223d" stroke="#1a223d"></path><path d="M473 762.5L451 723.8L441 751.8Z" fill="#35303e" stroke="#35303e"></path><path d="M473 762.5L487 748.8L451 723.8Z" fill="#23263d" stroke="#23263d"></path><path d="M473 762.5L441 751.8L420 828.1Z" fill="#2a293d" stroke="#2a293d"></path><path d="M64 689.2L62 695.5L101 712.2Z" fill="#2d2b3d" stroke="#2d2b3d"></path><path d="M131 734.8L144 770.5L154 727.2Z" fill="#1a223d" stroke="#1a223d"></path><path d="M16 656.5L59 639.9L52 619.9Z" fill="#2d2b3d" stroke="#2d2b3d"></path><path d="M326 187.5L287 193.2L291 262.8Z" fill="#302c3d" stroke="#302c3d"></path><path d="M243 156.9L219 166.5L269 210.5Z" fill="#27273d" stroke="#27273d"></path><path d="M420 828.1L441 751.8L385 791.5Z" fill="#302c3d" stroke="#302c3d"></path><path d="M0 386.1L67 391.7L0 371.7Z" fill="#1f243d" stroke="#1f243d"></path><path d="M123 770.5L131 734.8L117 770.8Z" fill="#1a223d" stroke="#1a223d"></path><path d="M164 796.1L199 799.5L188 729.8Z" fill="#302c3d" stroke="#302c3d"></path><path d="M362 210.2L326 187.5L291 262.8Z" fill="#1a223d" stroke="#1a223d"></path><path d="M378 143.9L326 187.5L362 210.2Z" fill="#302c3d" stroke="#302c3d"></path><path d="M512 215.5L460 224.2L468 244.8Z" fill="#14213d" stroke="#14213d"></path><path d="M468 244.8L460 224.2L454 252.8Z" fill="#1a223d" stroke="#1a223d"></path><path d="M198 223.2L112 245.8L140 270.8Z" fill="#2d2b3d" stroke="#2d2b3d"></path><path d="M121 274.8L88 246.2L93 317.5Z" fill="#302c3d" stroke="#302c3d"></path><path d="M94 243.2L112 245.8L108 187.5Z" fill="#37323e" stroke="#37323e"></path><path d="M0 552.3L0 609.9L64 555.3Z" fill="#1a223d" stroke="#1a223d"></path><path d="M117 770.8L131 734.8L101 712.2Z" fill="#1a223d" stroke="#1a223d"></path><path d="M144 770.5L164 796.1L188 729.8Z" fill="#35303e" stroke="#35303e"></path><path d="M0 371.7L74 350.1L0 327.5Z" fill="#14213d" stroke="#14213d"></path><path d="M0 371.7L67 391.7L74 350.1Z" fill="#322e3d" stroke="#322e3d"></path><path d="M127 796.1L164 796.1L144 770.5Z" fill="#37323e" stroke="#37323e"></path><path d="M0 609.9L16 656.5L52 619.9Z" fill="#23263d" stroke="#23263d"></path><path d="M37 737.8L117 770.8L101 712.2Z" fill="#2a293d" stroke="#2a293d"></path><path d="M540 756.5L540 726.2L487 748.8Z" fill="#2d2b3d" stroke="#2d2b3d"></path><path d="M487 748.8L540 726.2L461 675.2Z" fill="#2a293d" stroke="#2a293d"></path><path d="M532 663.2L540 726.2L540 642.5Z" fill="#27273d" stroke="#27273d"></path><path d="M37 737.8L101 712.2L62 695.5Z" fill="#35303e" stroke="#35303e"></path><path d="M123 770.5L127 796.1L144 770.5Z" fill="#23263d" stroke="#23263d"></path><path d="M0 327.5L74 350.1L65 316.1Z" fill="#1f243d" stroke="#1f243d"></path><path d="M460 224.2L411 188.2L427 251.2Z" fill="#2d2b3d" stroke="#2d2b3d"></path><path d="M108 187.5L112 245.8L198 223.2Z" fill="#1f243d" stroke="#1f243d"></path><path d="M112 245.8L88 246.2L121 274.8Z" fill="#37323e" stroke="#37323e"></path><path d="M94 243.2L88 246.2L112 245.8Z" fill="#14213d" stroke="#14213d"></path><path d="M265 848.7L265 837.1L173 841.7Z" fill="#23263d" stroke="#23263d"></path><path d="M199 799.5L265 837.1L240 799.1Z" fill="#322e3d" stroke="#322e3d"></path><path d="M240 799.1L265 837.1L285 774.5Z" fill="#14213d" stroke="#14213d"></path><path d="M374 796.5L369 836.7L385 791.5Z" fill="#27273d" stroke="#27273d"></path><path d="M0 609.9L0 657.5L16 656.5Z" fill="#322e3d" stroke="#322e3d"></path><path d="M0 720.8L37 737.8L62 695.5Z" fill="#35303e" stroke="#35303e"></path><path d="M324 862.1L369 836.7L327 778.8Z" fill="#37323e" stroke="#37323e"></path><path d="M540 764.8L540 756.5L487 748.8Z" fill="#14213d" stroke="#14213d"></path><path d="M83 854.7L127 796.1L117 770.8Z" fill="#37323e" stroke="#37323e"></path><path d="M117 770.8L127 796.1L123 770.5Z" fill="#322e3d" stroke="#322e3d"></path><path d="M173 841.7L265 837.1L199 799.5Z" fill="#2a293d" stroke="#2a293d"></path><path d="M369 836.7L420 828.1L385 791.5Z" fill="#302c3d" stroke="#302c3d"></path><path d="M243 156.9L271 208.2L287 193.2Z" fill="#322e3d" stroke="#322e3d"></path><path d="M243 156.9L269 210.5L271 208.2Z" fill="#302c3d" stroke="#302c3d"></path><path d="M94 243.2L72 197.5L88 246.2Z" fill="#302c3d" stroke="#302c3d"></path><path d="M243 156.9L287 193.2L285 127.9Z" fill="#23263d" stroke="#23263d"></path><path d="M540 764.8L487 748.8L473 762.5Z" fill="#2d2b3d" stroke="#2d2b3d"></path><path d="M173 841.7L199 799.5L164 796.1Z" fill="#1a223d" stroke="#1a223d"></path><path d="M265 837.1L324 862.1L327 778.8Z" fill="#302c3d" stroke="#302c3d"></path><path d="M7 287.5L0 327.5L65 316.1Z" fill="#2d2b3d" stroke="#2d2b3d"></path><path d="M306 136.9L287 193.2L326 187.5Z" fill="#1a223d" stroke="#1a223d"></path><path d="M478 821.5L540 764.8L473 762.5Z" fill="#1f243d" stroke="#1f243d"></path><path d="M0 720.8L62 695.5L16 656.5Z" fill="#322e3d" stroke="#322e3d"></path><path d="M540 229.8L468 244.8L522 308.5Z" fill="#302c3d" stroke="#302c3d"></path><path d="M460 224.2L476 160.5L411 188.2Z" fill="#1a223d" stroke="#1a223d"></path><path d="M183 127.3L191 163.5L219 166.5Z" fill="#23263d" stroke="#23263d"></path><path d="M219 166.5L191 163.5L198 223.2Z" fill="#1f243d" stroke="#1f243d"></path><path d="M265 848.7L324 862.1L265 837.1Z" fill="#1f243d" stroke="#1f243d"></path><path d="M369 836.7L408 889.4L420 828.1Z" fill="#27273d" stroke="#27273d"></path><path d="M540 312.5L540 229.8L522 308.5Z" fill="#23263d" stroke="#23263d"></path><path d="M129 853.1L173 841.7L127 796.1Z" fill="#1a223d" stroke="#1a223d"></path><path d="M127 796.1L173 841.7L164 796.1Z" fill="#23263d" stroke="#23263d"></path><path d="M265 848.7L284 900.7L324 862.1Z" fill="#14213d" stroke="#14213d"></path><path d="M420 828.1L478 821.5L473 762.5Z" fill="#23263d" stroke="#23263d"></path><path d="M480 830.1L478 821.5L469 850.1Z" fill="#35303e" stroke="#35303e"></path><path d="M345 931.4L342 865.1L324 862.1Z" fill="#302c3d" stroke="#302c3d"></path><path d="M324 862.1L342 865.1L369 836.7Z" fill="#23263d" stroke="#23263d"></path><path d="M378 143.9L362 210.2L411 188.2Z" fill="#37323e" stroke="#37323e"></path><path d="M356 134.5L306 136.9L326 187.5Z" fill="#27273d" stroke="#27273d"></path><path d="M183 127.3L161 146.9L191 163.5Z" fill="#35303e" stroke="#35303e"></path><path d="M20 255.8L7 287.5L65 316.1Z" fill="#37323e" stroke="#37323e"></path><path d="M20 255.8L65 316.1L88 246.2Z" fill="#1a223d" stroke="#1a223d"></path><path d="M7 287.5L0 296.8L0 327.5Z" fill="#27273d" stroke="#27273d"></path><path d="M397 143.5L411 188.2L437 142.9Z" fill="#1f243d" stroke="#1f243d"></path><path d="M397 143.5L378 143.9L411 188.2Z" fill="#322e3d" stroke="#322e3d"></path><path d="M131 155.9L108 187.5L198 223.2Z" fill="#1f243d" stroke="#1f243d"></path><path d="M476 160.5L460 224.2L512 215.5Z" fill="#23263d" stroke="#23263d"></path><path d="M378 143.9L356 134.5L326 187.5Z" fill="#23263d" stroke="#23263d"></path><path d="M382 69.6L356 134.5L378 143.9Z" fill="#1a223d" stroke="#1a223d"></path><path d="M491 835.7L480 830.1L469 850.1Z" fill="#322e3d" stroke="#322e3d"></path><path d="M478 821.5L491 835.7L540 764.8Z" fill="#2a293d" stroke="#2a293d"></path><path d="M0 657.5L0 720.8L16 656.5Z" fill="#1f243d" stroke="#1f243d"></path><path d="M83 854.7L129 853.1L127 796.1Z" fill="#322e3d" stroke="#322e3d"></path><path d="M284 108.3L285 127.9L306 136.9Z" fill="#37323e" stroke="#37323e"></path><path d="M306 136.9L285 127.9L287 193.2Z" fill="#2a293d" stroke="#2a293d"></path><path d="M191 163.5L131 155.9L198 223.2Z" fill="#322e3d" stroke="#322e3d"></path><path d="M26 234.2L20 255.8L88 246.2Z" fill="#322e3d" stroke="#322e3d"></path><path d="M7 287.5L0 230.2L0 296.8Z" fill="#35303e" stroke="#35303e"></path><path d="M94 144.9L72 197.5L108 187.5Z" fill="#35303e" stroke="#35303e"></path><path d="M108 187.5L72 197.5L94 243.2Z" fill="#37323e" stroke="#37323e"></path><path d="M183 127.3L219 166.5L243 156.9Z" fill="#322e3d" stroke="#322e3d"></path><path d="M469 850.1L478 821.5L420 828.1Z" fill="#2d2b3d" stroke="#2d2b3d"></path><path d="M480 830.1L491 835.7L478 821.5Z" fill="#1f243d" stroke="#1f243d"></path><path d="M540 182.5L476 160.5L512 215.5Z" fill="#14213d" stroke="#14213d"></path><path d="M397 143.5L413 80.6L378 143.9Z" fill="#37323e" stroke="#37323e"></path><path d="M476 160.5L437 142.9L411 188.2Z" fill="#37323e" stroke="#37323e"></path><path d="M0 720.8L0 739.2L37 737.8Z" fill="#37323e" stroke="#37323e"></path><path d="M444 883.7L469 850.1L420 828.1Z" fill="#27273d" stroke="#27273d"></path><path d="M72 197.5L26 234.2L88 246.2Z" fill="#14213d" stroke="#14213d"></path><path d="M20 255.8L0 230.2L7 287.5Z" fill="#1f243d" stroke="#1f243d"></path><path d="M161 146.9L131 155.9L191 163.5Z" fill="#35303e" stroke="#35303e"></path><path d="M540 229.8L540 195.2L512 215.5Z" fill="#37323e" stroke="#37323e"></path><path d="M17 822.1L117 770.8L37 737.8Z" fill="#302c3d" stroke="#302c3d"></path><path d="M173 841.7L218 889.7L265 848.7Z" fill="#37323e" stroke="#37323e"></path><path d="M0 739.2L9 762.5L37 737.8Z" fill="#14213d" stroke="#14213d"></path><path d="M250 111.3L183 127.3L243 156.9Z" fill="#35303e" stroke="#35303e"></path><path d="M90 140.5L94 144.9L92 95.3Z" fill="#23263d" stroke="#23263d"></path><path d="M356 134.5L284 108.3L306 136.9Z" fill="#1f243d" stroke="#1f243d"></path><path d="M285 127.9L250 111.3L243 156.9Z" fill="#2d2b3d" stroke="#2d2b3d"></path><path d="M382 69.6L284 108.3L356 134.5Z" fill="#322e3d" stroke="#322e3d"></path><path d="M284 108.3L250 111.3L285 127.9Z" fill="#302c3d" stroke="#302c3d"></path><path d="M161 906.7L218 889.7L173 841.7Z" fill="#14213d" stroke="#14213d"></path><path d="M342 865.1L408 889.4L369 836.7Z" fill="#1a223d" stroke="#1a223d"></path><path d="M540 195.2L540 182.5L512 215.5Z" fill="#37323e" stroke="#37323e"></path><path d="M476 160.5L481 129.9L437 142.9Z" fill="#2a293d" stroke="#2a293d"></path><path d="M228 902.4L284 900.7L265 848.7Z" fill="#302c3d" stroke="#302c3d"></path><path d="M345 931.4L408 889.4L342 865.1Z" fill="#2d2b3d" stroke="#2d2b3d"></path><path d="M408 889.4L444 883.7L420 828.1Z" fill="#23263d" stroke="#23263d"></path><path d="M540 853.1L540 847.7L491 835.7Z" fill="#2d2b3d" stroke="#2d2b3d"></path><path d="M161 906.7L228 902.4L218 889.7Z" fill="#322e3d" stroke="#322e3d"></path><path d="M218 889.7L228 902.4L265 848.7Z" fill="#302c3d" stroke="#302c3d"></path><path d="M0 169.5L26 234.2L72 197.5Z" fill="#1a223d" stroke="#1a223d"></path><path d="M0 169.5L0 230.2L26 234.2Z" fill="#2a293d" stroke="#2a293d"></path><path d="M26 234.2L0 230.2L20 255.8Z" fill="#37323e" stroke="#37323e"></path><path d="M540 122.3L481 129.9L476 160.5Z" fill="#1a223d" stroke="#1a223d"></path><path d="M437 142.9L429 98.9L397 143.5Z" fill="#2a293d" stroke="#2a293d"></path><path d="M131 155.9L94 144.9L108 187.5Z" fill="#302c3d" stroke="#302c3d"></path><path d="M94 144.9L98 89.3L92 95.3Z" fill="#302c3d" stroke="#302c3d"></path><path d="M131 155.9L98 89.3L94 144.9Z" fill="#14213d" stroke="#14213d"></path><path d="M17 822.1L83 854.7L117 770.8Z" fill="#14213d" stroke="#14213d"></path><path d="M129 853.1L161 906.7L173 841.7Z" fill="#37323e" stroke="#37323e"></path><path d="M540 853.1L491 835.7L482 900.4Z" fill="#35303e" stroke="#35303e"></path><path d="M491 835.7L540 847.7L540 764.8Z" fill="#35303e" stroke="#35303e"></path><path d="M66 127.9L90 140.5L92 95.3Z" fill="#35303e" stroke="#35303e"></path><path d="M94 144.9L90 140.5L72 197.5Z" fill="#1f243d" stroke="#1f243d"></path><path d="M481 129.9L429 98.9L437 142.9Z" fill="#23263d" stroke="#23263d"></path><path d="M482 900.4L491 835.7L469 850.1Z" fill="#322e3d" stroke="#322e3d"></path><path d="M0 739.2L0 800.1L9 762.5Z" fill="#1f243d" stroke="#1f243d"></path><path d="M9 762.5L17 822.1L37 737.8Z" fill="#14213d" stroke="#14213d"></path><path d="M150 941.4L161 906.7L84 924.4Z" fill="#2d2b3d" stroke="#2d2b3d"></path><path d="M84 924.4L161 906.7L129 853.1Z" fill="#35303e" stroke="#35303e"></path><path d="M324 960L345 931.4L284 900.7Z" fill="#14213d" stroke="#14213d"></path><path d="M0 800.1L17 822.1L9 762.5Z" fill="#302c3d" stroke="#302c3d"></path><path d="M239 951.4L284 900.7L228 902.4Z" fill="#1f243d" stroke="#1f243d"></path><path d="M284 900.7L345 931.4L324 862.1Z" fill="#1f243d" stroke="#1f243d"></path><path d="M481 904.7L482 900.4L444 883.7Z" fill="#2d2b3d" stroke="#2d2b3d"></path><path d="M444 883.7L482 900.4L469 850.1Z" fill="#302c3d" stroke="#302c3d"></path><path d="M406 49.3L413 80.6L441 55.6Z" fill="#35303e" stroke="#35303e"></path><path d="M429 98.9L413 80.6L397 143.5Z" fill="#2a293d" stroke="#2a293d"></path><path d="M221 14.6L170 73.6L250 111.3Z" fill="#27273d" stroke="#27273d"></path><path d="M170 73.6L161 146.9L183 127.3Z" fill="#322e3d" stroke="#322e3d"></path><path d="M481 904.7L444 883.7L422 960Z" fill="#1a223d" stroke="#1a223d"></path><path d="M0 825.5L19 838.7L17 822.1Z" fill="#1f243d" stroke="#1f243d"></path><path d="M17 822.1L19 838.7L83 854.7Z" fill="#2a293d" stroke="#2a293d"></path><path d="M411 952.4L444 883.7L408 889.4Z" fill="#37323e" stroke="#37323e"></path><path d="M482 900.4L540 897.4L540 853.1Z" fill="#35303e" stroke="#35303e"></path><path d="M413 80.6L382 69.6L378 143.9Z" fill="#2d2b3d" stroke="#2d2b3d"></path><path d="M0 800.1L0 825.5L17 822.1Z" fill="#37323e" stroke="#37323e"></path><path d="M170 73.6L183 127.3L250 111.3Z" fill="#302c3d" stroke="#302c3d"></path><path d="M90 140.5L66 127.9L72 197.5Z" fill="#302c3d" stroke="#302c3d"></path><path d="M540 182.5L540 122.3L476 160.5Z" fill="#37323e" stroke="#37323e"></path><path d="M481 129.9L487 73.6L429 98.9Z" fill="#1a223d" stroke="#1a223d"></path><path d="M406 49.3L386 45.3L382 69.6Z" fill="#322e3d" stroke="#322e3d"></path><path d="M289 45.3L250 111.3L284 108.3Z" fill="#1f243d" stroke="#1f243d"></path><path d="M66 127.9L0 169.5L72 197.5Z" fill="#37323e" stroke="#37323e"></path><path d="M239 951.4L228 902.4L220 960Z" fill="#302c3d" stroke="#302c3d"></path><path d="M229 960L239 951.4L220 960Z" fill="#23263d" stroke="#23263d"></path><path d="M382 69.6L289 45.3L284 108.3Z" fill="#1a223d" stroke="#1a223d"></path><path d="M345 931.4L386 952.4L408 889.4Z" fill="#1a223d" stroke="#1a223d"></path><path d="M327 960L386 952.4L345 931.4Z" fill="#37323e" stroke="#37323e"></path><path d="M0 825.5L0 845.7L19 838.7Z" fill="#322e3d" stroke="#322e3d"></path><path d="M6 908.4L84 924.4L83 854.7Z" fill="#35303e" stroke="#35303e"></path><path d="M239 951.4L324 960L284 900.7Z" fill="#27273d" stroke="#27273d"></path><path d="M324 960L327 960L345 931.4Z" fill="#322e3d" stroke="#322e3d"></path><path d="M98 89.3L131 155.9L161 146.9Z" fill="#14213d" stroke="#14213d"></path><path d="M66 127.9L0 103.9L0 169.5Z" fill="#322e3d" stroke="#322e3d"></path><path d="M481 904.7L540 897.4L482 900.4Z" fill="#27273d" stroke="#27273d"></path><path d="M532 960L540 897.4L481 904.7Z" fill="#2d2b3d" stroke="#2d2b3d"></path><path d="M60 76.6L98 89.3L66 30.6Z" fill="#2a293d" stroke="#2a293d"></path><path d="M170 73.6L98 89.3L161 146.9Z" fill="#35303e" stroke="#35303e"></path><path d="M92 95.3L60 76.6L66 127.9Z" fill="#302c3d" stroke="#302c3d"></path><path d="M415 960L411 952.4L386 952.4Z" fill="#37323e" stroke="#37323e"></path><path d="M386 952.4L411 952.4L408 889.4Z" fill="#27273d" stroke="#27273d"></path><path d="M220 960L228 902.4L161 906.7Z" fill="#1a223d" stroke="#1a223d"></path><path d="M239 951.4L229 960L324 960Z" fill="#35303e" stroke="#35303e"></path><path d="M406 49.3L382 69.6L413 80.6Z" fill="#27273d" stroke="#27273d"></path><path d="M382 69.6L310 23.6L289 45.3Z" fill="#2a293d" stroke="#2a293d"></path><path d="M84 924.4L129 853.1L83 854.7Z" fill="#27273d" stroke="#27273d"></path><path d="M441 55.6L413 80.6L429 98.9Z" fill="#1a223d" stroke="#1a223d"></path><path d="M155 943.4L220 960L161 906.7Z" fill="#2a293d" stroke="#2a293d"></path><path d="M150 941.4L155 943.4L161 906.7Z" fill="#35303e" stroke="#35303e"></path><path d="M540 89.9L487 73.6L481 129.9Z" fill="#35303e" stroke="#35303e"></path><path d="M462 53.3L441 55.6L429 98.9Z" fill="#37323e" stroke="#37323e"></path><path d="M402 0L344 0L386 45.3Z" fill="#27273d" stroke="#27273d"></path><path d="M327 960L415 960L386 952.4Z" fill="#1f243d" stroke="#1f243d"></path><path d="M411 952.4L422 960L444 883.7Z" fill="#23263d" stroke="#23263d"></path><path d="M415 960L422 960L411 952.4Z" fill="#35303e" stroke="#35303e"></path><path d="M462 53.3L449 51.3L441 55.6Z" fill="#2d2b3d" stroke="#2d2b3d"></path><path d="M441 55.6L453 0L406 49.3Z" fill="#322e3d" stroke="#322e3d"></path><path d="M6 908.4L83 854.7L19 838.7Z" fill="#322e3d" stroke="#322e3d"></path><path d="M148 960L160 960L155 943.4Z" fill="#2d2b3d" stroke="#2d2b3d"></path><path d="M540 122.3L540 89.9L481 129.9Z" fill="#2d2b3d" stroke="#2d2b3d"></path><path d="M487 73.6L462 53.3L429 98.9Z" fill="#1f243d" stroke="#1f243d"></path><path d="M489 0L462 53.3L487 73.6Z" fill="#27273d" stroke="#27273d"></path><path d="M386 45.3L310 23.6L382 69.6Z" fill="#35303e" stroke="#35303e"></path><path d="M289 45.3L221 14.6L250 111.3Z" fill="#14213d" stroke="#14213d"></path><path d="M276 0L310 23.6L344 0Z" fill="#27273d" stroke="#27273d"></path><path d="M310 23.6L386 45.3L344 0Z" fill="#1f243d" stroke="#1f243d"></path><path d="M148 960L155 943.4L150 941.4Z" fill="#322e3d" stroke="#322e3d"></path><path d="M155 943.4L160 960L220 960Z" fill="#1a223d" stroke="#1a223d"></path><path d="M84 924.4L148 960L150 941.4Z" fill="#2d2b3d" stroke="#2d2b3d"></path><path d="M144 16.6L98 89.3L170 73.6Z" fill="#302c3d" stroke="#302c3d"></path><path d="M98 89.3L60 76.6L92 95.3Z" fill="#37323e" stroke="#37323e"></path><path d="M229 8.6L221 14.6L289 45.3Z" fill="#35303e" stroke="#35303e"></path><path d="M275 0L229 8.6L289 45.3Z" fill="#302c3d" stroke="#302c3d"></path><path d="M184 0L144 16.6L170 73.6Z" fill="#14213d" stroke="#14213d"></path><path d="M60 76.6L0 103.9L66 127.9Z" fill="#37323e" stroke="#37323e"></path><path d="M0 845.7L6 908.4L19 838.7Z" fill="#27273d" stroke="#27273d"></path><path d="M84 924.4L55 960L148 960Z" fill="#2d2b3d" stroke="#2d2b3d"></path><path d="M386 45.3L406 49.3L402 0Z" fill="#27273d" stroke="#27273d"></path><path d="M310 23.6L276 0L289 45.3Z" fill="#27273d" stroke="#27273d"></path><path d="M276 0L275 0L289 45.3Z" fill="#37323e" stroke="#37323e"></path><path d="M402 0L406 49.3L453 0Z" fill="#302c3d" stroke="#302c3d"></path><path d="M540 89.9L540 56.6L487 73.6Z" fill="#1f243d" stroke="#1f243d"></path><path d="M453 0L441 55.6L449 51.3Z" fill="#2d2b3d" stroke="#2d2b3d"></path><path d="M184 0L221 14.6L229 8.6Z" fill="#27273d" stroke="#27273d"></path><path d="M184 0L170 73.6L221 14.6Z" fill="#2a293d" stroke="#2a293d"></path><path d="M60 76.6L0 75.3L0 103.9Z" fill="#302c3d" stroke="#302c3d"></path><path d="M422 960L532 960L481 904.7Z" fill="#2d2b3d" stroke="#2d2b3d"></path><path d="M453 0L449 51.3L462 53.3Z" fill="#23263d" stroke="#23263d"></path><path d="M532 960L540 960L540 897.4Z" fill="#1f243d" stroke="#1f243d"></path><path d="M275 0L184 0L229 8.6Z" fill="#27273d" stroke="#27273d"></path><path d="M0 845.7L0 922.4L6 908.4Z" fill="#1a223d" stroke="#1a223d"></path><path d="M40 960L55 960L84 924.4Z" fill="#27273d" stroke="#27273d"></path><path d="M40 960L84 924.4L6 908.4Z" fill="#35303e" stroke="#35303e"></path><path d="M66 30.6L98 89.3L109 0Z" fill="#1a223d" stroke="#1a223d"></path><path d="M7 59.3L0 75.3L60 76.6Z" fill="#1f243d" stroke="#1f243d"></path><path d="M489 0L453 0L462 53.3Z" fill="#322e3d" stroke="#322e3d"></path><path d="M0 922.4L40 960L6 908.4Z" fill="#37323e" stroke="#37323e"></path><path d="M109 0L98 89.3L144 16.6Z" fill="#2a293d" stroke="#2a293d"></path><path d="M184 0L140 0L144 16.6Z" fill="#2a293d" stroke="#2a293d"></path><path d="M66 30.6L7 59.3L60 76.6Z" fill="#302c3d" stroke="#302c3d"></path><path d="M540 56.6L489 0L487 73.6Z" fill="#35303e" stroke="#35303e"></path><path d="M140 0L109 0L144 16.6Z" fill="#1a223d" stroke="#1a223d"></path><path d="M66 30.6L0 33.6L7 59.3Z" fill="#322e3d" stroke="#322e3d"></path><path d="M0 922.4L0 960L40 960Z" fill="#35303e" stroke="#35303e"></path><path d="M540 56.6L540 0L489 0Z" fill="#23263d" stroke="#23263d"></path><path d="M109 0L65 0L66 30.6Z" fill="#2a293d" stroke="#2a293d"></path><path d="M55 0L0 33.6L66 30.6Z" fill="#37323e" stroke="#37323e"></path><path d="M7 59.3L0 33.6L0 75.3Z" fill="#1a223d" stroke="#1a223d"></path><path d="M65 0L55 0L66 30.6Z" fill="#27273d" stroke="#27273d"></path><path d="M55 0L0 0L0 33.6Z" fill="#37323e" stroke="#37323e"></path></g></svg>