<svg id="visual" viewBox="0 0 675 900" width="675" height="900" xmlns="http://www.w3.org/2000/svg" xmlns:xlink="http://www.w3.org/1999/xlink" version="1.1"><rect x="0" y="0" width="675" height="900" fill="#000000"></rect><defs><linearGradient id="grad1_0" x1="0%" y1="0%" x2="100%" y2="100%"><stop offset="30%" stop-color="#000000" stop-opacity="1"></stop><stop offset="70%" stop-color="#000000" stop-opacity="1"></stop></linearGradient></defs><defs><linearGradient id="grad2_0" x1="0%" y1="0%" x2="100%" y2="100%"><stop offset="30%" stop-color="#000000" stop-opacity="1"></stop><stop offset="70%" stop-color="#000000" stop-opacity="1"></stop></linearGradient></defs><g transform="translate(675, 0)"><path d="M0 281.3C-35.9 277.1 -71.8 273 -107.6 259.8C-143.5 246.7 -179.2 224.6 -193 193C-206.8 161.5 -198.7 120.6 -209.7 86.9C-220.8 53.1 -251 26.6 -281.2 0L0 0Z" fill="#fca311"></path></g><g transform="translate(0, 900)"><path d="M0 -281.2C34.4 -273.9 68.8 -266.5 105.6 -255C142.4 -243.5 181.6 -227.9 198.9 -198.9C216.2 -169.8 211.6 -127.2 221.7 -91.8C231.8 -56.4 256.5 -28.2 281.3 0L0 0Z" fill="#fca311"></path></g></svg>