<svg id="visual" viewBox="0 0 450 900" width="450" height="900" xmlns="http://www.w3.org/2000/svg" xmlns:xlink="http://www.w3.org/1999/xlink" version="1.1"><rect x="0" y="0" width="450" height="900" fill="#000000"></rect><defs><linearGradient id="grad1_0" x1="0%" y1="0%" x2="100%" y2="100%"><stop offset="30%" stop-color="#000000" stop-opacity="1"></stop><stop offset="70%" stop-color="#000000" stop-opacity="1"></stop></linearGradient></defs><defs><linearGradient id="grad2_0" x1="0%" y1="0%" x2="100%" y2="100%"><stop offset="30%" stop-color="#000000" stop-opacity="1"></stop><stop offset="70%" stop-color="#000000" stop-opacity="1"></stop></linearGradient></defs><g transform="translate(450, 0)"><path d="M0 225C-31.3 223.7 -62.7 222.5 -86.1 207.9C-109.5 193.2 -125 165.2 -142.8 142.8C-160.7 120.4 -180.9 103.6 -194.9 80.7C-209 57.9 -217 28.9 -225 0L0 0Z" fill="#fca311"></path></g><g transform="translate(0, 900)"><path d="M0 -225C26.7 -214.2 53.4 -203.4 80 -193.1C106.5 -182.8 133 -172.9 155.6 -155.6C178.2 -138.2 196.9 -113.3 207.9 -86.1C218.8 -58.9 221.9 -29.5 225 0L0 0Z" fill="#fca311"></path></g></svg>