<svg id="visual" viewBox="0 0 960 540" width="960" height="540" xmlns="http://www.w3.org/2000/svg" xmlns:xlink="http://www.w3.org/1999/xlink" version="1.1"><rect x="0" y="0" width="960" height="540" fill="#000000"></rect><defs><linearGradient id="grad1_0" x1="43.8%" y1="0%" x2="100%" y2="100%"><stop offset="14.444444444444446%" stop-color="#000000" stop-opacity="1"></stop><stop offset="85.55555555555554%" stop-color="#000000" stop-opacity="1"></stop></linearGradient></defs><defs><linearGradient id="grad2_0" x1="0%" y1="0%" x2="56.3%" y2="100%"><stop offset="14.444444444444446%" stop-color="#000000" stop-opacity="1"></stop><stop offset="85.55555555555554%" stop-color="#000000" stop-opacity="1"></stop></linearGradient></defs><g transform="translate(960, 0)"><path d="M0 270C-25.7 241.8 -51.5 213.6 -84.2 203.3C-116.9 192.9 -156.6 200.4 -186.7 186.7C-216.7 172.9 -237.2 138 -249.4 103.3C-261.7 68.7 -265.9 34.3 -270 0L0 0Z" fill="#fca311"></path></g><g transform="translate(0, 540)"><path d="M0 -270C38.9 -269.6 77.7 -269.1 103.3 -249.4C128.9 -229.8 141.3 -190.8 164.8 -164.8C188.2 -138.7 222.7 -125.6 242.1 -100.3C261.4 -75 265.7 -37.5 270 0L0 0Z" fill="#fca311"></path></g></svg>