<svg id="visual" viewBox="0 0 900 600" width="900" height="600" xmlns="http://www.w3.org/2000/svg" xmlns:xlink="http://www.w3.org/1999/xlink" version="1.1"><rect x="0" y="0" width="900" height="600" fill="#000000"></rect><defs><linearGradient id="grad1_0" x1="33.3%" y1="0%" x2="100%" y2="100%"><stop offset="20%" stop-color="#000000" stop-opacity="1"></stop><stop offset="80%" stop-color="#000000" stop-opacity="1"></stop></linearGradient></defs><defs><linearGradient id="grad2_0" x1="0%" y1="0%" x2="66.7%" y2="100%"><stop offset="20%" stop-color="#000000" stop-opacity="1"></stop><stop offset="80%" stop-color="#000000" stop-opacity="1"></stop></linearGradient></defs><g transform="translate(900, 0)"><path d="M0 270.4C-37.4 269 -74.9 267.7 -103.5 249.8C-132.1 232 -151.9 197.7 -169 169C-186.1 140.3 -200.6 117.2 -217.1 89.9C-233.6 62.7 -252 31.3 -270.4 0L0 0Z" fill="#fca311"></path></g><g transform="translate(0, 600)"><path d="M0 -270.4C29 -250.3 58.1 -230.1 90.7 -219C123.3 -207.8 159.6 -205.7 188.1 -188.1C216.6 -170.5 237.4 -137.4 249.8 -103.5C262.3 -69.6 266.3 -34.8 270.4 0L0 0Z" fill="#fca311"></path></g></svg>